<svg id="Layer_1" data-name="Layer 1" xmlns="http://www.w3.org/2000/svg" viewBox="0 0 497.72 214.69"><defs><style>.cls-1{fill:#fff;}.cls-2{fill:#cc1d1e;}</style></defs><path class="cls-1" d="M452.73,485V338.71H545v24.68H481v36.12H542.8v24.07H481v36.73h64V485Z" transform="translate(-452.73 -338.71)"/><path class="cls-1" d="M559,454.7q0-14.4,9.38-22.65t26.73-9.49L627,420.22V416q0-8.05-5.2-12.6t-14.7-4.54q-14.28,0-28.56,9.59L567,389.1a72,72,0,0,1,43.46-14.38q19.48,0,31.27,10.35t11.78,27.6V455.1q0,6.33,6,6.33h5.61V485H652.47a26.55,26.55,0,0,1-13.57-3.37,21,21,0,0,1-8.67-9.38,39.68,39.68,0,0,1-14.49,11.43,44.65,44.65,0,0,1-19.27,4.08q-16.12,0-26.78-9.39A30.17,30.17,0,0,1,559,454.7Zm26.11-.21a10.45,10.45,0,0,0,4.8,9q4.78,3.36,12.54,3.37a26.77,26.77,0,0,0,17.35-5.77q7.14-5.76,7.14-13.92v-6.84l-28.06,2.45Q585.14,444,585.14,454.49Z" transform="translate(-452.73 -338.71)"/><path class="cls-1" d="M715.92,485q-14.28,0-22-7.5t-7.7-19.63V400.63H665.12V377h21.12V345.64h27.23V377h23.77v23.67H713.47v52.43a7.47,7.47,0,0,0,2.71,6.23,11.81,11.81,0,0,0,7.49,2.14h13.57V485Z" transform="translate(-452.73 -338.71)"/><path class="cls-1" d="M792.53,487.54q-20.61,0-33.61-10.2a43.45,43.45,0,0,1-16.27-26.42h25.91a18,18,0,0,0,8.36,11.68,30,30,0,0,0,15.61,3.83q7.35,0,11.43-3.06a9.6,9.6,0,0,0,4.08-8.06,8.15,8.15,0,0,0-2.76-6,17.52,17.52,0,0,0-8.16-4l-22.34-5.2q-30.3-7.25-30.3-31.83,0-15.3,11.33-24.64t29-9.33q20,0,32.49,10.35a41.49,41.49,0,0,1,15,26.58H806.51a19.16,19.16,0,0,0-8.27-11.94,24.85,24.85,0,0,0-13.66-4q-6.33,0-9.85,2.86a9,9,0,0,0-3.52,7.24q0,8.37,13,11.43l20.7,5.1q29.68,7.14,29.69,31.32a30.85,30.85,0,0,1-11.42,24.58Q811.71,487.54,792.53,487.54Z" transform="translate(-452.73 -338.71)"/><path class="cls-1" d="M874.14,495l5-12-45.9-106h29.48l29.79,72.94L922,377h28.47L897.81,505.29q-5.31,13-12.8,18.26t-20,5.31H848.84v-23h10.51q5.71,0,9-2.34T874.14,495Z" transform="translate(-452.73 -338.71)"/><path class="cls-1" d="M452.75,542.69l0-36.4,22.94,0v6.15H459.76v9h15.38v6H459.77v9.14h15.91v6.14Z" transform="translate(-452.73 -338.71)"/><path class="cls-1" d="M479.71,535.13a7.15,7.15,0,0,1,2.34-5.64,11,11,0,0,1,6.65-2.36l7.91-.59v-1a3.94,3.94,0,0,0-1.29-3.13,5.42,5.42,0,0,0-3.66-1.13,12.64,12.64,0,0,0-7.1,2.39l-2.88-4.82a18,18,0,0,1,10.82-3.59,11.41,11.41,0,0,1,7.78,2.57,8.71,8.71,0,0,1,2.93,6.87v10.56c0,1,.5,1.57,1.5,1.57h1.39v5.86H503a6.62,6.62,0,0,1-3.38-.84,5.34,5.34,0,0,1-2.16-2.33,9.75,9.75,0,0,1-3.6,2.84,11.1,11.1,0,0,1-4.8,1,9.7,9.7,0,0,1-6.66-2.33A7.55,7.55,0,0,1,479.71,535.13Zm6.5,0a2.59,2.59,0,0,0,1.2,2.23,5.28,5.28,0,0,0,3.12.84,6.62,6.62,0,0,0,4.31-1.44,4.31,4.31,0,0,0,1.78-3.47v-1.7l-7,.62C487.35,532.36,486.21,533.34,486.21,535.08Z" transform="translate(-452.73 -338.71)"/><path class="cls-1" d="M519.28,542.65a7.5,7.5,0,0,1-5.47-1.87,6.49,6.49,0,0,1-1.92-4.88V521.66h-5.26v-5.89h5.25V508h6.78v7.8h5.92v5.89h-5.91v13a1.85,1.85,0,0,0,.68,1.55,2.9,2.9,0,0,0,1.86.53h3.38v5.86Z" transform="translate(-452.73 -338.71)"/><path class="cls-1" d="M538.86,543.27a13.13,13.13,0,0,1-8.36-2.53,10.84,10.84,0,0,1-4.06-6.58h6.45a4.46,4.46,0,0,0,2.08,2.9,7.45,7.45,0,0,0,3.89,1,4.63,4.63,0,0,0,2.84-.76,2.39,2.39,0,0,0,1-2,2,2,0,0,0-.69-1.5,4.44,4.44,0,0,0-2-1l-5.56-1.29q-7.55-1.8-7.54-7.91a7.53,7.53,0,0,1,2.81-6.14,11,11,0,0,1,7.21-2.32,12.18,12.18,0,0,1,8.08,2.57,10.27,10.27,0,0,1,3.72,6.61h-6.39a4.79,4.79,0,0,0-2.06-3,6.19,6.19,0,0,0-3.4-1,3.75,3.75,0,0,0-2.45.72,2.23,2.23,0,0,0-.88,1.8c0,1.39,1.08,2.33,3.23,2.84l5.15,1.26q7.4,1.78,7.4,7.79a7.68,7.68,0,0,1-2.84,6.12A11.4,11.4,0,0,1,538.86,543.27Z" transform="translate(-452.73 -338.71)"/><path class="cls-1" d="M571,542.62h-6.73l0-36.4H574l10.88,27.65,10.8-27.67h9.67l0,36.39h-6.8l0-26.88L588,542.61h-6.45l-10.67-26.87Z" transform="translate(-452.73 -338.71)"/><path class="cls-1" d="M609.56,535.05a7.1,7.1,0,0,1,2.33-5.63,11,11,0,0,1,6.65-2.37l7.92-.59v-1a4,4,0,0,0-1.3-3.13,5.39,5.39,0,0,0-3.65-1.13,12.7,12.7,0,0,0-7.11,2.39l-2.87-4.82a18,18,0,0,1,10.81-3.59,11.35,11.35,0,0,1,7.78,2.58,8.68,8.68,0,0,1,2.94,6.86v10.56c0,1.05.5,1.57,1.5,1.57H636v5.87h-3.15a6.58,6.58,0,0,1-3.37-.84,5.13,5.13,0,0,1-2.16-2.33,9.86,9.86,0,0,1-3.61,2.84,11,11,0,0,1-4.79,1,9.71,9.71,0,0,1-6.67-2.33A7.53,7.53,0,0,1,609.56,535.05Zm6.5,0a2.61,2.61,0,0,0,1.19,2.23,5.33,5.33,0,0,0,3.12.84,6.66,6.66,0,0,0,4.32-1.44,4.33,4.33,0,0,0,1.77-3.47v-1.7l-7,.62C617.2,532.28,616.05,533.26,616.06,535Z" transform="translate(-452.73 -338.71)"/><path class="cls-1" d="M668,542.56H661.2v-2.49a13,13,0,0,1-8.68,3.23,14.3,14.3,0,0,1-5.61-1.12,14.75,14.75,0,0,1-4.58-3,14.48,14.48,0,0,1-3.05-4.51,13.88,13.88,0,0,1,0-10.95,14.41,14.41,0,0,1,3.05-4.52,14.19,14.19,0,0,1,4.58-3,14.4,14.4,0,0,1,5.61-1.11,13.07,13.07,0,0,1,8.63,3.14v-12h6.8Zm-6.71-13.4A8.16,8.16,0,1,0,647.33,535a7.77,7.77,0,0,0,5.75,2.41,8.19,8.19,0,0,0,8.17-8.2Z" transform="translate(-452.73 -338.71)"/><path class="cls-1" d="M672.17,529.1a14,14,0,0,1,1.8-6.93,13.83,13.83,0,0,1,5-5.17,13.56,13.56,0,0,1,7.11-1.94,13.12,13.12,0,0,1,9.92,4,14.25,14.25,0,0,1,3.87,10.3v2H679.16a7.94,7.94,0,0,0,2.74,4.34,7.29,7.29,0,0,0,4.8,1.67,8.88,8.88,0,0,0,3.91-.82,9,9,0,0,0,3.14-2.71l4.75,3.53a14.12,14.12,0,0,1-5,4.31,14.49,14.49,0,0,1-6.7,1.53,15.35,15.35,0,0,1-7.4-1.8,13.37,13.37,0,0,1-5.26-5A14.21,14.21,0,0,1,672.17,529.1ZM686,520.87a6.51,6.51,0,0,0-4.18,1.42,7.37,7.37,0,0,0-2.52,3.89H693a7.24,7.24,0,0,0-7.09-5.3Z" transform="translate(-452.73 -338.71)"/><path class="cls-2" d="M715.36,542.53l0-36.4h22.95v6.14H722.37v9h15.38v6H722.38v9.14H738.3v6.14Z" transform="translate(-452.73 -338.71)"/><path class="cls-2" d="M742.32,535a7.14,7.14,0,0,1,2.33-5.63A11,11,0,0,1,751.3,527l7.92-.59v-1a3.92,3.92,0,0,0-1.3-3.13,5.39,5.39,0,0,0-3.65-1.13,12.7,12.7,0,0,0-7.11,2.39l-2.87-4.82a18,18,0,0,1,10.81-3.59,11.33,11.33,0,0,1,7.78,2.58,8.65,8.65,0,0,1,2.94,6.86v10.56c0,1.05.5,1.57,1.49,1.57h1.4v5.87h-3.14a6.62,6.62,0,0,1-3.38-.84,5.24,5.24,0,0,1-2.16-2.33,9.75,9.75,0,0,1-3.6,2.84,11.1,11.1,0,0,1-4.8,1,9.7,9.7,0,0,1-6.66-2.33A7.5,7.5,0,0,1,742.32,535Zm6.5-.05a2.61,2.61,0,0,0,1.19,2.23,5.34,5.34,0,0,0,3.13.84,6.62,6.62,0,0,0,4.31-1.44,4.34,4.34,0,0,0,1.78-3.47v-1.7l-7,.62C750,532.2,748.82,533.18,748.82,534.92Z" transform="translate(-452.73 -338.71)"/><path class="cls-2" d="M783.74,543.12a13.18,13.18,0,0,1-8.37-2.53,10.79,10.79,0,0,1-4-6.57h6.45a4.48,4.48,0,0,0,2.08,2.91,7.51,7.51,0,0,0,3.88,1,4.66,4.66,0,0,0,2.85-.77,2.39,2.39,0,0,0,1-2,2.05,2.05,0,0,0-.68-1.5,4.43,4.43,0,0,0-2-1l-5.55-1.29q-7.55-1.8-7.55-7.91a7.57,7.57,0,0,1,2.82-6.14,10.9,10.9,0,0,1,7.2-2.32,12.26,12.26,0,0,1,8.09,2.57,10.34,10.34,0,0,1,3.72,6.61h-6.4a4.76,4.76,0,0,0-2.05-3,6.15,6.15,0,0,0-3.41-1,3.82,3.82,0,0,0-2.45.72,2.22,2.22,0,0,0-.87,1.8q0,2.09,3.23,2.84l5.15,1.27q7.38,1.77,7.39,7.79a7.66,7.66,0,0,1-2.84,6.11A11.3,11.3,0,0,1,783.74,543.12Z" transform="translate(-452.73 -338.71)"/><path class="cls-2" d="M804.57,545l1.24-3L794.37,515.6h7.33l7.43,18.14,7.32-18.15h7.08l-13.07,31.94a10,10,0,0,1-3.19,4.55,8.46,8.46,0,0,1-5,1.32h-4v-5.71h2.61a3.83,3.83,0,0,0,2.25-.58A4.75,4.75,0,0,0,804.57,545Z" transform="translate(-452.73 -338.71)"/><path class="cls-2" d="M829.5,535.45a3.65,3.65,0,0,1,2.66,1.09,3.6,3.6,0,0,1,1.1,2.64,3.54,3.54,0,0,1-1.09,2.62,3.68,3.68,0,0,1-2.67,1.06,3.58,3.58,0,0,1-2.65-1.06,3.52,3.52,0,0,1-1.08-2.61,3.58,3.58,0,0,1,1.09-2.64A3.63,3.63,0,0,1,829.5,535.45Zm2.92-2.92h-5.77l-.55-26.48h6.75Z" transform="translate(-452.73 -338.71)"/></svg>