<svg id="Layer_1" data-name="Layer 1" xmlns="http://www.w3.org/2000/svg" viewBox="0 0 340.84 525.63"><defs><style>.cls-1{fill:#cd1e1e;}.cls-2{fill:#1d1d1b;}.cls-3{fill:#fff;}</style></defs><path class="cls-1" d="M194.3,633.22l-.16,9.08c0-.76,0-1.53,0-2.34C194.22,637.71,194.26,635.47,194.3,633.22Z" transform="translate(-49.55 -237.18)"/><path class="cls-1" d="M175.73,594.71c0,3,.09,5.89-.16,8.72Z" transform="translate(-49.55 -237.18)"/><path class="cls-1" d="M195.11,586.52c0,.56,0,1.14,0,1.72-.29,15-.44,30-.81,45Z" transform="translate(-49.55 -237.18)"/><path class="cls-1" d="M175.89,585.52l-.16,9.19c0-2.33-.09-4.67,0-7C175.78,587,175.82,586.24,175.89,585.52Z" transform="translate(-49.55 -237.18)"/><path class="cls-1" d="M210.39,683.32l-1.24,71.15a8.47,8.47,0,0,1-8.62,8.34,8.54,8.54,0,0,1-8.35-8.64L193.43,683a8.5,8.5,0,0,1,8.64-8.35,8.5,8.5,0,0,1,8.32,8.65Z" transform="translate(-49.55 -237.18)"/><path class="cls-1" d="M165.61,684.51a8.49,8.49,0,0,1-8.32-8.65l.56-32.14a8.48,8.48,0,0,1,8.61-8.35,8.52,8.52,0,0,1,8.35,8.64l-.56,32.15A8.5,8.5,0,0,1,165.61,684.51Z" transform="translate(-49.55 -237.18)"/><path class="cls-1" d="M308.64,605.36a8.37,8.37,0,0,1,6-2.39,8.5,8.5,0,0,1,8.35,8.64L322,672.91a8.44,8.44,0,0,1-2.61,6,8.34,8.34,0,0,1-6,2.4,8.5,8.5,0,0,1-8.34-8.65L306,611.32A8.39,8.39,0,0,1,308.64,605.36Z" transform="translate(-49.55 -237.18)"/><path class="cls-1" d="M385.84,368.3l-.16.17-62.86,55.42-.14.11c-1.83,1.75-3.81,3.5-5.92,5.25q-44.89,37.28-90.51,73.8c-13.86,11.08-27.68,15.38-40,14.91-3.42-.14-5-3.47-6.94-5.78-7.66-9.1-6.91-10.91,9.44-24.26l61.61-50.26,50.89-41.54,16.5-13.43.16-.12,56.7-46.14.17-.14A170.31,170.31,0,0,0,235.3,237.86c-4.08-.39-8.16-.58-12.33-.66h0c-1.12,0-2.23,0-3.34,0h-.11c-2.66,0-5.33.05-8,.19-1.3.06-2.61.11-3.88.22-1.64.11-3.28.25-4.89.42a.12.12,0,0,0-.14,0c-1.72.17-3.41.36-5.11.58l-5,.75a.82.82,0,0,0-.28.06c-1.16.19-2.36.39-3.52.61-.61.11-1.19.22-1.81.36-1.41.25-2.86.55-4.27.86a3.25,3.25,0,0,0-.42.11c-1.44.33-2.89.67-4.3,1s-2.83.75-4.25,1.14a170.68,170.68,0,0,0-100.23,77c-.09.14-.17.28-.25.42A170.5,170.5,0,0,0,99,527.59c1.67,1.67,3.36,3.31,5.09,4.92,0-.53,0-1.09,0-1.61.5-11.94,4.08-18.33,10.11-18.19,5.3.08,8.6,4.58,9.41,13.24l-.39,23-.67,37.71a8.2,8.2,0,0,0,8.08,8.35h.5a8.21,8.21,0,0,0,8.39-8l.14-8.58c.11-.75.16-1.52.22-2.33.22-3.39.19-6.8.25-10.19,0-1.61.06-3.22.14-4.8,0-.61.05-1.2.11-1.78s.08-1.08.11-1.61c1.08-11.25,8.27-17.21,14.16-10.75,2.69,3,4.39,10.19,4.55,15.64,0,.75,0,1.47,0,2.22l-.05,2.94L158.39,614a8.26,8.26,0,0,0,8.11,8.38h.5a8.24,8.24,0,0,0,8.38-8.1l.2-10.83.14-8.72c0-2.33-.09-4.66,0-7,0-.78.09-1.5.14-2.22a26.25,26.25,0,0,1,2.28-9.33,3.87,3.87,0,0,1,.28-.47,11.16,11.16,0,0,1,1.14-1.72,7.2,7.2,0,0,1,6.3-2.86,8.18,8.18,0,0,1,7.58,5.33,2.74,2.74,0,0,1,.11.28,11.8,11.8,0,0,1,.69,2.13,32.28,32.28,0,0,1,.86,7.64v1.72c-.3,15-.44,30-.83,45l-.14,8.58-.16,8.8a8.23,8.23,0,0,0,8.08,8.36l.52,0A8.24,8.24,0,0,0,211,650.9l1.28-72.36v-.72h0a2.53,2.53,0,0,1,0-.47,10.93,10.93,0,0,1,21.85.08h0v.64L233,642.46a8.19,8.19,0,0,0,8.05,8.35h.53a8.25,8.25,0,0,0,8.38-8.08l.14-8.27.14-9.08v0c.17-15,.53-29.93.78-44.92,0-.58,0-1.17,0-1.72v0c.06-1,.12-2,.23-2.94a3.92,3.92,0,0,1,0-.59,26.65,26.65,0,0,1,.83-4.11,15.22,15.22,0,0,1,.89-2.36,8.18,8.18,0,0,1,7.75-5.08c3.19-.05,5.66,1.59,7.27,4.83a3,3,0,0,1,.28.48c.28.61.5,1.25.75,1.91a3.46,3.46,0,0,1,.14.53,30.92,30.92,0,0,1,1.06,7v0c0,.73,0,1.45.08,2.23,0,2.3-.11,4.6-.25,6.94v0c-.11,3-.28,5.88-.14,8.71l-.19,10.8a8.24,8.24,0,0,0,8.1,8.39h.5a8.25,8.25,0,0,0,8.39-8.11l.75-42.76.11-6.38c0-.75.08-1.47.11-2.22.36-5.45,2.28-12.61,5.08-15.47,6.11-6.25,13.11,0,13.77,11.22.06.83.09,1.72.11,2.58a3.23,3.23,0,0,0,0,.44v.39c0,1.59,0,3.2,0,4.81-.06,3.38-.2,6.77-.09,10.19,0,.8.06,1.58.11,2.33l-.14,8.58a8.21,8.21,0,0,0,8.08,8.36h.5a8.23,8.23,0,0,0,8.39-8.08l.67-38.51.38-22.19c1.11-8.66,4.59-13,9.89-12.91,5.75.06,9,5.94,9.41,16.85a164.35,164.35,0,0,0,14.36-17.38A169.93,169.93,0,0,0,376.1,476c.72-1.58,1.39-3.16,2-4.77.38-1,.77-2,1.16-3,1.22-3.19,2.33-6.47,3.36-9.75.39-1.27.78-2.55,1.14-3.83.53-1.86,1-3.72,1.5-5.61s.91-3.8,1.3-5.75c.09-.41.17-.8.25-1.22.11-.61.25-1.25.36-1.86.45-2.19.81-4.41,1.14-6.66a168.79,168.79,0,0,0-2.5-65.28ZM142.93,442.58c-9.36,7.63-15.05,7-22.47-2.39-14.85-18.8-16-40.62-3.22-63,9.11-15.86,21.44-28.91,35.49-40.49,18.85-15.52,37.31-31.51,60.83-39.92,19.55-7,38.65-7.75,55.89,6,4.69,3.72,8.67,8.55,12.3,13.35,3.78,5,2.25,11.08-3.55,16-7,5.92-14.16,11.61-21.24,17.41l-47.45,38.73Q176.23,415.45,142.93,442.58Zm2.86,24.32c-.64-9.14,7.69-17.55,14.07-21.22a27.66,27.66,0,0,1,13-3.6,27.35,27.35,0,0,1,5.66.3c5.25.94,6.94-1.17,7.53-6.39,2-18,14-27.82,32.23-26.51,4.83.33,7.06-.22,7.86-5.86,2.75-19.35,13.8-28.21,33.35-27,5.13.33,6.47-1.3,7.05-6.05C268.87,351.67,281,342,299.86,344a17.43,17.43,0,0,1,7.66,3.83c10.44,8.53,7.25,25.71,7,26.77a19.83,19.83,0,0,0-7.6-5.36,20.61,20.61,0,0,0-14.5,0c-1.11,10.16-2.75,19.85-11.22,26.82s-18.32,6.83-28.79,5.78c-1.55,10.49-3,20.35-11.63,27.21-8.39,6.63-17.8,7.05-28.41,5.52-.66,3.56-1.24,6.72-1.86,9.89-3,15.43-15,25-30.7,23.43-3.22-.33-5.36-.11-6.83,1-2.48,1.91-2.64,5.44-2.7,6.41-.3,6.69,5.78,11.36,6.67,12.05C159.56,488.44,146.56,477.61,145.79,466.9Z" transform="translate(-49.55 -237.18)"/><path class="cls-1" d="M164.82,729.64A8.47,8.47,0,0,1,156.5,721l.21-12.35a8.49,8.49,0,0,1,8.62-8.32,8.54,8.54,0,0,1,8.35,8.62l-.22,12.35A8.48,8.48,0,0,1,164.82,729.64Z" transform="translate(-49.55 -237.18)"/><path class="cls-1" d="M235,669.17a8.35,8.35,0,0,1,6-2.4,8.48,8.48,0,0,1,8.32,8.62L248.78,708a8.51,8.51,0,0,1-2.57,6,8.38,8.38,0,0,1-6,2.39,8.49,8.49,0,0,1-8.35-8.64l.57-32.57A8.32,8.32,0,0,1,235,669.17Z" transform="translate(-49.55 -237.18)"/><path class="cls-1" d="M129.81,657.72a8.39,8.39,0,0,1-6-2.6,8.49,8.49,0,0,1-2.36-6l.56-32.15a8.46,8.46,0,0,1,14.57-5.74,8.38,8.38,0,0,1,2.39,6l-.56,32.14A8.49,8.49,0,0,1,129.81,657.72Z" transform="translate(-49.55 -237.18)"/><path class="cls-1" d="M268.76,669l.56-32.15a8.54,8.54,0,0,1,8.65-8.34,8.48,8.48,0,0,1,8.34,8.64l-.56,32.15a8.52,8.52,0,0,1-8.64,8.34A8.5,8.5,0,0,1,268.76,669Z" transform="translate(-49.55 -237.18)"/><path class="cls-1" d="M270.79,695.84a8.34,8.34,0,0,1,6-2.39,8.5,8.5,0,0,1,8.35,8.64l-.73,41.53a8.54,8.54,0,0,1-8.64,8.35,8.5,8.5,0,0,1-8.35-8.65l.73-41.53A8.39,8.39,0,0,1,270.79,695.84Z" transform="translate(-49.55 -237.18)"/><path class="cls-1" d="M250.22,625.39q-.06,3.38-.09,6.75c0,.8,0,1.58-.06,2.33Z" transform="translate(-49.55 -237.18)"/><path class="cls-1" d="M251,578.7l-.82,46.66c.16-15,.53-30,.76-44.94C251,579.84,251,579.25,251,578.7Z" transform="translate(-49.55 -237.18)"/><path class="cls-1" d="M270.29,578.37c0,.72.06,1.44.07,2.22,0,2.31-.11,4.61-.23,6.94Z" transform="translate(-49.55 -237.18)"/><path class="cls-2" d="M285.18,409.22Z" transform="translate(-49.55 -237.18)"/><path class="cls-3" d="M385.68,368.47l-62.86,55.42-.14.11c-1.83,1.75-3.81,3.5-5.92,5.25q-44.89,37.28-90.51,73.8c-13.86,11.08-27.68,15.38-40,14.91-3.42-.14-5-3.47-6.94-5.78-7.66-9.1-6.91-10.91,9.44-24.26l61.61-50.26,50.89-41.54,16.5-13.43.16-.12,56.7-46.14A167.53,167.53,0,0,1,385.68,368.47Z" transform="translate(-49.55 -237.18)"/><path class="cls-3" d="M314.54,374.58a19.83,19.83,0,0,0-7.6-5.36,20.61,20.61,0,0,0-14.5,0c-1.11,10.16-2.75,19.85-11.22,26.82s-18.32,6.83-28.79,5.78c-1.55,10.49-3,20.35-11.63,27.21-8.39,6.63-17.8,7.05-28.41,5.52-.66,3.56-1.24,6.72-1.86,9.89-3,15.43-15,25-30.7,23.43-3.22-.33-5.36-.11-6.83,1-2.48,1.91-2.64,5.44-2.7,6.41-.3,6.69,5.78,11.36,6.67,12.05-17.41,1.08-30.41-9.75-31.18-20.46-.64-9.14,7.69-17.55,14.07-21.22a27.66,27.66,0,0,1,13-3.6,27.35,27.35,0,0,1,5.66.3c5.25.94,6.94-1.17,7.53-6.39,2-18,14-27.82,32.23-26.51,4.83.33,7.06-.22,7.86-5.86,2.75-19.35,13.8-28.21,33.35-27,5.13.33,6.47-1.3,7.05-6.05C268.87,351.67,281,342,299.86,344a17.43,17.43,0,0,1,7.66,3.83C318,356.34,314.77,373.52,314.54,374.58Z" transform="translate(-49.55 -237.18)"/><path class="cls-3" d="M278.2,332.15c-7,5.92-14.16,11.61-21.24,17.41l-47.45,38.73q-33.28,27.16-66.58,54.29c-9.36,7.63-15.05,7-22.47-2.39-14.85-18.8-16-40.62-3.22-63,9.11-15.86,21.44-28.91,35.49-40.49,18.85-15.52,37.31-31.51,60.83-39.92,19.55-7,38.65-7.75,55.89,6,4.69,3.72,8.67,8.55,12.3,13.35C285.53,321.1,284,327.21,278.2,332.15Z" transform="translate(-49.55 -237.18)"/></svg>