<svg id="Layer_1" data-name="Layer 1" xmlns="http://www.w3.org/2000/svg" viewBox="0 0 786.18 786.18"><defs><style>.cls-1{fill:#fff;}.cls-2{fill:#cd2826;}</style></defs><circle class="cls-1" cx="393.09" cy="393.09" r="393.09"/><path class="cls-2" d="M310.53,605.39l185.94,1.71,68.71.66,0,0,310.57,1c41.06-145-3.56-307-126.82-409.6C582.06,60.35,334.18,83.07,195.36,250s-116,414.74,50.86,553.56,414.7,116.1,553.52-50.81a392.21,392.21,0,0,0,40.14-58l-278.74-3.65q-102.93-.59-205.77-2.5c-41.5-.7-72.71-13.72-94.21-33-6-5.32-3.86-13.76-3.86-20.75C257.21,607,261.21,604.86,310.53,605.39Zm-51.3-187.92c1.36-56,31.87-97,88.36-118,40-14.86,81.71-19.87,124.27-19.65,57,.26,114.2-.88,169,19.17,45.58,16.7,81.1,43.87,91.56,94.29,2.86,13.71,2.77,28.31,2.11,42.37-.66,14.64-12.48,23.26-30.33,23.48-21.36.26-42.77-.27-64.22-.44l-143.17-1.37q-100.36-.92-200.85-1.93C267.76,455.1,258.48,445.47,259.23,417.47Zm5.58,85.89c12.49-17.36,40-20,57-17.1a65.3,65.3,0,0,1,28.71,12.88,64,64,0,0,1,9.76,9.06c7.95,9.54,14.19,8.26,23-.22,30.68-29.37,66.82-29.06,97.59.48,8.17,7.87,13,10.16,22.86,1.28,33.93-30.69,67-30.12,100.27,1.36,8.74,8.26,13.54,7.34,21.71-.31,32.57-30.55,68.93-29.8,99.79,2,2.11,2.2,6.28,9.1,8,18.33,6,30.95-25.45,57-27.43,58.64a46.4,46.4,0,0,0-5.67-21.06c-8.13-14.81-22.07-20.26-26-21.67-17.19,16.62-34.64,31.61-60.31,31.48S571,563.37,553.75,545.83c-18.51,16.52-35.74,32.09-61.54,31.51-25-.61-42.55-14-59.34-32.57-6.55,5.41-12.31,10.24-18.16,15-28.4,23.25-64.35,22.38-90.2-3.82-5.28-5.37-9.5-8.18-13.85-8.36-7.3-.22-12.88,5.85-14.37,7.52-10.6,11.56-6.69,29.06-6.07,31.61C257.3,562.66,250.13,523.71,264.81,503.36Z" transform="translate(-104.46 -108.27)"/></svg>